<svg width="24" height="24" viewBox="0 0 24 24" fill="none" xmlns="http://www.w3.org/2000/svg">
<path d="M5.33333 16.4C6.90556 16.4 7.69111 16.4 8.17778 16.884C8.66667 17.3669 8.66667 18.1435 8.66667 19.7C8.66667 21.2565 8.66667 22.0342 8.17778 22.516C7.69 23 6.90556 23 5.33333 23C3.76111 23 2.97556 23 2.48889 22.516C2 22.0331 2 21.2554 2 19.7C2 18.1435 2 17.3658 2.48889 16.884C2.97667 16.4 3.76111 16.4 5.33333 16.4ZM5.33333 16.4V7.6M5.33333 7.6C3.76111 7.6 2.97556 7.6 2.48889 7.116C2 6.6331 2 5.8554 2 4.3C2 2.7435 2 1.9658 2.48889 1.484C2.97667 1 3.76111 1 5.33333 1C6.90556 1 7.69111 1 8.17778 1.484C8.66667 1.9669 8.66667 2.7435 8.66667 4.3C8.66667 5.8565 8.66667 6.6342 8.17778 7.116C7.69 7.6 6.90556 7.6 5.33333 7.6ZM18.6667 7.6C17.0944 7.6 16.3089 7.6 15.8222 7.116C15.3333 6.6331 15.3333 5.8554 15.3333 4.3C15.3333 2.7435 15.3333 1.9658 15.8222 1.484C16.31 1 17.0944 1 18.6667 1C20.2389 1 21.0244 1 21.5111 1.484C22 1.9669 22 2.7435 22 4.3C22 5.8565 22 6.6342 21.5111 7.116C21.0233 7.6 20.2389 7.6 18.6667 7.6ZM18.6667 7.6C18.6667 9.6746 18.6667 10.7108 18.0156 11.3554C17.3644 12 16.3178 12 14.2222 12H5.33333" stroke="#F26721" stroke-width="2" stroke-linecap="round" stroke-linejoin="round"/>
</svg>
